<svg xmlns="http://www.w3.org/2000/svg" xmlns:xlink="http://www.w3.org/1999/xlink"><symbol id="icon-compare" viewBox="0 0 24 24">

        <path d="M10.125 6H9v12h1.125V6zM7.125 13.5H6V18h1.125v-4.5zM12 10.5h1.125V18H12v-7.5zM16.125 12.75H15V18h1.125v-5.25zM16.113 6h-1.125v4.5h1.125V6z"/><path d="M17.8 8.813V7.687h-4.5v1.125h4.5z"/>
</symbol><symbol id="icon-favourites" viewBox="0 0 24 22">
        <path d="M22.249 2.481A6.081 6.081 0 0 0 17.625.4c-2.529 0-4.13 1.51-5.028 2.777a9.212 9.212 0 0 0-.597.969 9.212 9.212 0 0 0-.597-.97C10.505 1.91 8.903.4 6.375.4c-1.798 0-3.44.74-4.624 2.082C.621 3.763 0 5.48 0 7.313c0 1.997.78 3.855 2.454 5.846 1.496 1.779 3.648 3.613 6.14 5.737.93.791 1.89 1.61 2.912 2.505l.03.026a.701.701 0 0 0 .927 0l.03-.026c1.023-.895 1.984-1.713 2.913-2.505 2.492-2.124 4.644-3.958 6.14-5.737C23.22 11.168 24 9.31 24 7.313c0-1.834-.622-3.55-1.751-4.832zm-7.756 15.345c-.8.682-1.624 1.384-2.493 2.14a326.52 326.52 0 0 0-2.494-2.14c-4.877-4.157-8.1-6.903-8.1-10.513 0-1.492.497-2.878 1.4-3.902a4.694 4.694 0 0 1 3.569-1.606c1.928 0 3.174 1.188 3.88 2.184a8.335 8.335 0 0 1 1.076 2.14.703.703 0 0 0 1.338 0 8.336 8.336 0 0 1 1.076-2.14c.706-.996 1.952-2.184 3.88-2.184 1.389 0 2.656.57 3.569 1.606.903 1.024 1.4 2.41 1.4 3.902 0 3.61-3.223 6.356-8.1 10.513z"/>
      </symbol></svg>